<svg width="25" height="28" viewBox="0 0 25 28" fill="none" xmlns="http://www.w3.org/2000/svg">
<path d="M4.90744 1L1.09082 6.06672V23.8002C1.09082 24.4721 1.35889 25.1165 1.83606 25.5916C2.31323 26.0667 2.96041 26.3336 3.63523 26.3336H21.4461C22.1209 26.3336 22.7681 26.0667 23.2453 25.5916C23.7224 25.1165 23.9905 24.4721 23.9905 23.8002V6.06672L20.1739 1H4.90744Z" stroke="black" stroke-width="2" stroke-linecap="round" stroke-linejoin="round"/>
<path d="M1.09082 6.06686H23.9905" stroke="black" stroke-width="2" stroke-linecap="round" stroke-linejoin="round"/>
<path d="M17.6293 11.1335C17.6293 12.4773 17.0931 13.766 16.1388 14.7162C15.1845 15.6664 13.8901 16.2002 12.5405 16.2002C11.1908 16.2002 9.89647 15.6664 8.94214 14.7162C7.9878 13.766 7.45166 12.4773 7.45166 11.1335" stroke="black" stroke-width="2" stroke-linecap="round" stroke-linejoin="round"/>
</svg>
