<svg width="31" height="30" viewBox="0 0 31 30" fill="none" xmlns="http://www.w3.org/2000/svg">
<path d="M30.1769 26.9887L23.3761 20.1879C25.0134 18.0081 25.8973 15.355 25.8943 12.6288C25.8943 5.66532 20.229 0 13.2655 0C6.30204 0 0.636719 5.66532 0.636719 12.6288C0.636719 19.5923 6.30204 25.2576 13.2655 25.2576C15.9917 25.2606 18.6449 24.3767 20.8246 22.7394L27.6254 29.5402C27.9697 29.8479 28.4187 30.0122 28.8803 29.9993C29.3418 29.9864 29.7809 29.7972 30.1075 29.4707C30.434 29.1442 30.6231 28.7051 30.636 28.2435C30.6489 27.782 30.4847 27.333 30.1769 26.9887ZM4.24495 12.6288C4.24495 10.8447 4.77399 9.10066 5.76519 7.61724C6.75638 6.13381 8.1652 4.97762 9.81349 4.29488C11.4618 3.61213 13.2755 3.4335 15.0253 3.78156C16.7752 4.12962 18.3825 4.98874 19.644 6.25029C20.9056 7.51184 21.7647 9.11915 22.1128 10.869C22.4608 12.6188 22.2822 14.4325 21.5994 16.0808C20.9167 17.7291 19.7605 19.1379 18.2771 20.1291C16.7937 21.1203 15.0496 21.6494 13.2655 21.6494C10.874 21.6465 8.58124 20.6952 6.89018 19.0041C5.19912 17.3131 4.24782 15.0203 4.24495 12.6288Z" fill="black"/>
</svg>
